<svg width="128" height="128" viewBox="0 0 128 128" fill="none" xmlns="http://www.w3.org/2000/svg">
<rect x="16" y="16" width="96" height="96" rx="48" fill="#F9C92D"/>
<path fill-rule="evenodd" clip-rule="evenodd" d="M78.6635 70.3826C77.865 69.9834 73.9502 68.0595 73.2214 67.7915C72.4926 67.5263 71.9621 67.395 71.4288 68.1935C70.8983 68.9866 69.3737 70.7819 68.9101 71.3124C68.4439 71.8456 67.9803 71.9099 67.1845 71.5134C66.3887 71.1114 63.8217 70.2728 60.7805 67.5611C58.4145 65.4497 56.8148 62.8425 56.3513 62.044C55.8877 61.2482 56.3004 60.8168 56.6996 60.4202C57.0587 60.0639 57.4954 59.4905 57.8947 59.0269C58.2939 58.5607 58.4252 58.2284 58.6905 57.6952C58.9584 57.1646 58.8245 56.7011 58.6235 56.3018C58.4252 55.9026 56.8336 51.9825 56.1691 50.3882C55.5233 48.8368 54.8668 49.0484 54.3792 49.0216C53.9129 49.0002 53.3824 48.9949 52.8519 48.9949C52.3213 48.9949 51.4585 49.1931 50.7297 49.9916C49.9982 50.7874 47.943 52.714 47.943 56.6341C47.943 60.5515 50.794 64.3377 51.1933 64.8709C51.5925 65.4014 56.8068 73.4453 64.7944 76.8938C66.6968 77.7137 68.1786 78.2041 69.3335 78.5685C71.2413 79.1767 72.9776 79.091 74.3495 78.8847C75.8768 78.6569 79.0601 76.9581 79.7246 75.0985C80.3864 73.239 80.3864 71.6447 80.1881 71.3124C79.9898 70.9801 79.4593 70.7819 78.6608 70.3826H78.6635ZM64.1352 90.2189H64.1245C59.3803 90.2198 54.7232 88.9445 50.6413 86.5266L49.6767 85.9532L39.65 88.5845L42.3268 78.8096L41.6971 77.8075C39.0448 73.5856 37.6411 68.6993 37.6484 63.7133C37.6537 49.1101 49.5346 37.2292 64.146 37.2292C71.2198 37.2292 77.8704 39.9891 82.8703 44.9944C85.3365 47.4503 87.2911 50.371 88.6212 53.5872C89.9514 56.8035 90.6305 60.2516 90.6194 63.7321C90.6141 78.3354 78.7332 90.2189 64.1352 90.2189ZM86.6752 41.1922C83.7229 38.2204 80.2102 35.8641 76.3406 34.2598C72.471 32.6554 68.3215 31.835 64.1326 31.8461C46.5711 31.8461 32.2733 46.1412 32.2679 63.7107C32.2598 69.3021 33.7266 74.7968 36.5203 79.6403L32 96.154L48.8916 91.7221C53.5643 94.268 58.8006 95.602 64.1218 95.6021H64.1352C81.6967 95.6021 95.9945 81.3069 95.9998 63.7348C96.0128 59.5475 95.1954 55.3991 93.5948 51.5297C91.9943 47.6604 89.6424 44.1468 86.6752 41.1922Z" fill="#14213D"/>
</svg>
